{
    "accessors": {
        "accessors_0": {
            "bufferView": "bufferViews_0",
            "byteOffset": 12,
            "byteStride": 24,
            "componentType": 5126,
            "count": 35400,
            "max": [
                1.0,
                1.0,
                1.0
            ],
            "min": [
                -1.0,
                -1.0,
                -1.0
            ],
            "type": "VEC3"
        },
        "accessors_1": {
            "bufferView": "bufferViews_0",
            "byteOffset": 0,
            "byteStride": 24,
            "componentType": 5126,
            "count": 35400,
            "max": [
                2.4098124504089355,
                2.6457135677337646,
                0.09532348066568375
            ],
            "min": [
                -2.4098119735717773,
                -1.76676344871521,
                -0.09532348066568375
            ],
            "type": "VEC3"
        },
        "accessors_2": {
            "bufferView": "bufferViews_1",
            "byteOffset": 0,
            "byteStride": 2,
            "componentType": 5123,
            "count": 126720,
            "max": [
                35399
            ],
            "min": [
                0
            ],
            "type": "SCALAR"
        },
        "accessors_3": {
            "bufferView": "bufferViews_2",
            "byteOffset": 0,
            "byteStride": 2,
            "componentType": 5123,
            "count": 86688,
            "max": [
                35397
            ],
            "min": [
                4
            ],
            "type": "SCALAR"
        }
    },
    "asset": {
        "profile": {
            "api": "WebGL",
            "version": "1.0.3"
        },
        "version": "1.0"
    },
    "bufferViews": {
        "bufferViews_0": {
            "buffer": "buffers_0",
            "byteLength": 849600,
            "byteOffset": 0,
            "target": 34962
        },
        "bufferViews_1": {
            "buffer": "buffers_0",
            "byteLength": 253440,
            "byteOffset": 849600,
            "target": 34963
        },
        "bufferViews_2": {
            "buffer": "buffers_0",
            "byteLength": 173376,
            "byteOffset": 1103040,
            "target": 34963
        }
    },
    "buffers": {
        "buffers_0": {
            "byteLength": 1276416,
            "type": "arraybuffer",
            "uri": "buffer_combined.bin"
        }
    },
    "extensions": {
        "KHR_materials_common": {
            "lights": {}
        }
    },
    "extensionsUsed": [
        "KHR_materials_common"
    ],
    "glExtensionsUsed": [],
    "materials": {
        "materials_0": {
            "extensions": {
                "KHR_materials_common": {
                    "technique": "PHONG",
                    "values": {
                        "ambient": [
                            1.0,
                            1.0,
                            1.0,
                            1.0
                        ],
                        "diffuse": [
                            0.64000004529953,
                            0.64000004529953,
                            0.64000004529953,
                            1.0
                        ],
                        "doubleSided": false,
                        "emission": [
                            0.0,
                            0.0,
                            0.0,
                            1.0
                        ],
                        "shininess": 50,
                        "specular": [
                            0.5,
                            0.5,
                            0.5,
                            1.0
                        ],
                        "transparency": 1.0,
                        "transparent": false
                    }
                }
            },
            "name": "PLastic"
        },
        "materials_1": {
            "extensions": {
                "KHR_materials_common": {
                    "technique": "PHONG",
                    "values": {
                        "ambient": [
                            1.0,
                            1.0,
                            1.0,
                            1.0
                        ],
                        "diffuse": [
                            0.061263829469680786,
                            0.061263829469680786,
                            0.061263829469680786,
                            1.0
                        ],
                        "doubleSided": false,
                        "emission": [
                            0.0,
                            0.0,
                            0.0,
                            1.0
                        ],
                        "shininess": 50,
                        "specular": [
                            0.5,
                            0.5,
                            0.5,
                            1.0
                        ],
                        "transparency": 1.0,
                        "transparent": false
                    }
                }
            },
            "name": "Metal"
        }
    },
    "meshes": {
        "meshes_0": {
            "name": "Mesh",
            "primitives": [
                {
                    "attributes": {
                        "NORMAL": "accessors_0",
                        "POSITION": "accessors_1"
                    },
                    "indices": "accessors_2",
                    "material": "materials_1",
                    "mode": 4
                },
                {
                    "attributes": {
                        "NORMAL": "accessors_0",
                        "POSITION": "accessors_1"
                    },
                    "indices": "accessors_3",
                    "material": "materials_0",
                    "mode": 4
                }
            ]
        }
    },
    "nodes": {
        "nodes_0": {
            "children": [],
            "meshes": [
                "meshes_0"
            ],
            "name": "FidgetSpinner",
            "rotation": [
                0.0,
                0.0,
                0.0,
                1.0
            ],
            "scale": [
                1.0,
                1.0,
                1.0
            ],
            "translation": [
                0.0,
                0.0,
                0.0
            ]
        }
    },
    "samplers": {
        "samplers_0": {}
    },
    "scene": "scenes_0",
    "scenes": {
        "scenes_0": {
            "extras": {
                "active_camera": null,
                "background_color": [
                    0.05087608844041824,
                    0.05087608844041824,
                    0.05087608844041824
                ],
                "frames_per_second": 24
            },
            "name": "Scene",
            "nodes": [
                "nodes_0"
            ]
        }
    }
}
